<svg xmlns="http://www.w3.org/2000/svg" width="19" height="20" viewBox="0 0 19 20">
    <g fill="none" fill-rule="evenodd">
        <g fill="#AFAFAF" fill-rule="nonzero">
            <g>
                <g>
                    <g>
                        <path d="M2.5 0c.428 0 .78.322.828.736l.006.097v9.31C4.304 10.486 5 11.413 5 12.5c0 1.088-.695 2.014-1.666 2.357v4.31c0 .46-.374.833-.834.833-.427 0-.78-.322-.827-.736l-.006-.097v-4.31C.696 14.514 0 13.587 0 12.5c0-1.088.696-2.014 1.667-2.357V.833C1.667.373 2.04 0 2.5 0zm6.667 0c.427 0 .78.322.828.736L10 .833V4.31c.971.343 1.667 1.27 1.667 2.358S10.97 8.68 10 9.024v10.143c0 .46-.373.833-.833.833-.427 0-.78-.322-.828-.736l-.005-.097V9.024c-.971-.343-1.667-1.27-1.667-2.357 0-1.088.696-2.015 1.666-2.358V.833c0-.46.374-.833.834-.833zm6.667 0c.427 0 .78.322.827.736l.006.097v9.31c.97.343 1.667 1.269 1.667 2.357 0 1.088-.696 2.014-1.667 2.358v4.309c0 .46-.373.833-.833.833-.428 0-.78-.322-.828-.736L15 19.167v-4.31c-.971-.343-1.666-1.27-1.666-2.357 0-1.088.695-2.014 1.665-2.357L15 .833c0-.46.373-.833.834-.833zM2.5 11.667c-.46 0-.833.373-.833.833 0 .46.373.833.833.833.46 0 .834-.373.834-.833 0-.46-.374-.833-.834-.833zm13.334 0c-.46 0-.834.373-.834.833 0 .46.374.833.834.833.46 0 .833-.373.833-.833 0-.46-.374-.833-.833-.833zM9.167 5.833c-.46 0-.833.374-.833.834 0 .46.373.833.833.833.46 0 .833-.374.833-.833 0-.46-.373-.834-.833-.834z" transform="translate(-121 -495) translate(0 392) translate(20 89) translate(101 14)"/>
                    </g>
                </g>
            </g>
        </g>
    </g>
</svg>
